# xmcd
#
# Track frame offsets: 
#        150
#        18763
#        33248
#        50554
#        66997
#        94272
#        113380
#        134226
#        169424
#        216224
#
# Disc length: 3204 seconds
#
# Revision: 0
# Processed by: cddbd v1.5.2PL0 Copyright (c) Steve Scherf et al.
# Submitted via: ExactAudioCopy v0.95b4
#
DISCID=8d0c820a
DTITLE=Eric Clapton - His Majesty's Hand [CD2]
DYEAR=1994
DGENRE=Blues
TTITLE0=Sinner's prayer
TTITLE1=I can't Judge nobody
TTITLE2=Someday after a while
TTITLE3=I'm tore down
TTITLE4=Have you ever loved a woman
TTITLE5=Crosscut saw
TTITLE6=Five long years
TTITLE7=Crossroad blues
TTITLE8=Groanin' the blues
TTITLE9=Ain't nobody's business
EXTD=
EXTT0=
EXTT1=
EXTT2=
EXTT3=
EXTT4=
EXTT5=
EXTT6=
EXTT7=
EXTT8=
EXTT9=
PLAYORDER=
